<?xml version="1.0" encoding="utf-8"?>
<!-- Generator: Adobe Illustrator 16.0.0, SVG Export Plug-In . SVG Version: 6.00 Build 0)  -->
<!DOCTYPE svg PUBLIC "-//W3C//DTD SVG 1.1//EN" "http://www.w3.org/Graphics/SVG/1.1/DTD/svg11.dtd">
<svg version="1.1" id="Layer_1" xmlns="http://www.w3.org/2000/svg" xmlns:xlink="http://www.w3.org/1999/xlink" x="0px" y="0px"
	 width="28px" height="38px" viewBox="0 0 28 38" enable-background="new 0 0 28 38" xml:space="preserve">
<g>
	<g>
		<path fill="#C0BFBF" d="M13.177,37.408c-1.034-1.181-2.014-2.369-2.941-3.567c-0.927-1.197-1.809-2.419-2.646-3.666
			c-0.722-1.051-1.439-2.184-2.152-3.396c-0.713-1.215-1.366-2.462-1.957-3.742c-0.59-1.279-1.091-2.579-1.501-3.9
			c-0.411-1.32-0.681-2.62-0.812-3.901c-0.032-0.278-0.062-0.554-0.087-0.824c-0.024-0.271-0.036-0.546-0.036-0.825
			c0-1.821,0.34-3.531,1.021-5.129c0.681-1.599,1.608-2.999,2.781-4.196c1.173-1.198,2.547-2.141,4.122-2.83
			c1.575-0.689,3.257-1.034,5.044-1.034c1.787,0,3.47,0.345,5.044,1.034c1.574,0.69,2.943,1.633,4.109,2.83
			c1.164,1.198,2.088,2.596,2.77,4.196c0.68,1.6,1.02,3.309,1.02,5.129c0,0.279-0.006,0.555-0.023,0.825
			c-0.018,0.27-0.041,0.538-0.074,0.799c-0.131,1.296-0.402,2.605-0.811,3.925c-0.412,1.321-0.908,2.621-1.49,3.9
			c-0.584,1.28-1.223,2.523-1.92,3.728c-0.697,1.207-1.398,2.342-2.102,3.408c-0.836,1.247-1.711,2.471-2.621,3.666
			c-0.912,1.198-1.867,2.387-2.867,3.569c-0.098,0.115-0.197,0.206-0.296,0.271c-0.097,0.067-0.188,0.124-0.271,0.172h-0.024
			l-0.345,0.123l-0.37-0.123h-0.024c-0.082-0.048-0.168-0.106-0.258-0.172C13.369,37.614,13.275,37.525,13.177,37.408z
			 M14.014,5.126c-1.165,0-2.251,0.221-3.26,0.665C9.744,6.233,8.863,6.837,8.109,7.6c-0.755,0.763-1.35,1.661-1.784,2.694
			c-0.435,1.034-0.652,2.133-0.652,3.298s0.217,2.264,0.652,3.298c0.435,1.034,1.029,1.937,1.784,2.707
			c0.754,0.771,1.637,1.378,2.645,1.821c1.009,0.442,2.096,0.665,3.26,0.665c1.148,0,2.227-0.223,3.236-0.665
			c1.008-0.442,1.889-1.05,2.645-1.821c0.754-0.77,1.35-1.673,1.785-2.707c0.434-1.034,0.652-2.133,0.652-3.298
			c0-1.164-0.219-2.264-0.652-3.298c-0.436-1.033-1.031-1.932-1.785-2.694c-0.756-0.763-1.637-1.365-2.645-1.809
			C16.24,5.347,15.162,5.126,14.014,5.126z"/>
	</g>
</g>
</svg>
