<?xml version="1.0" encoding="utf-8"?>
<!-- Generator: Adobe Illustrator 16.0.0, SVG Export Plug-In . SVG Version: 6.00 Build 0)  -->
<!DOCTYPE svg PUBLIC "-//W3C//DTD SVG 1.1//EN" "http://www.w3.org/Graphics/SVG/1.1/DTD/svg11.dtd">
<svg version="1.1" id="Layer_1" xmlns="http://www.w3.org/2000/svg" xmlns:xlink="http://www.w3.org/1999/xlink" x="0px" y="0px"
	 width="33px" height="33px" viewBox="0 0 33 33" enable-background="new 0 0 33 33" xml:space="preserve">
<g>
	<g>
		<defs>
			<rect id="SVGID_1_" x="-13.483" y="-7.96" width="57.788" height="56.746"/>
		</defs>
		<clipPath id="SVGID_2_">
			<use xlink:href="#SVGID_1_"  overflow="visible"/>
		</clipPath>
		<g clip-path="url(#SVGID_2_)">
			<path fill="#BFBFBF" d="M30.796,22.641c0.25,0,0.487,0.049,0.71,0.145c0.223,0.101,0.418,0.232,0.584,0.397
				c0.139,0.165,0.257,0.355,0.355,0.563c0.097,0.207,0.147,0.44,0.147,0.69v6.223c0,0.25-0.049,0.488-0.147,0.711
				s-0.217,0.417-0.355,0.584c-0.166,0.141-0.363,0.258-0.584,0.354c-0.225,0.1-0.46,0.147-0.71,0.147
				c-4.179,0-8.104-0.794-11.781-2.381c-3.676-1.587-6.893-3.745-9.649-6.478c-2.73-2.755-4.886-5.973-6.474-9.647
				C1.304,10.275,0.51,6.348,0.51,2.171c0-0.25,0.048-0.487,0.146-0.709c0.097-0.223,0.215-0.42,0.355-0.585
				c0.166-0.14,0.361-0.258,0.584-0.355c0.222-0.098,0.459-0.146,0.709-0.146H8.53c0.251,0,0.479,0.048,0.69,0.146
				c0.209,0.098,0.397,0.216,0.563,0.355c0.167,0.166,0.3,0.362,0.397,0.585c0.096,0.223,0.146,0.458,0.146,0.709
				c0,0.557,0.021,1.107,0.063,1.65c0.042,0.543,0.104,1.08,0.188,1.608c0.084,0.529,0.188,1.053,0.313,1.568
				c0.126,0.515,0.271,1.022,0.439,1.524c0.056,0.167,0.083,0.327,0.083,0.48c0,0.154-0.014,0.314-0.042,0.481
				c-0.028,0.166-0.083,0.32-0.167,0.459c-0.083,0.14-0.182,0.278-0.292,0.417l-3.925,3.926c0.639,1.254,1.371,2.451,2.192,3.592
				c0.822,1.143,1.735,2.199,2.737,3.177c1.002,1.002,2.067,1.92,3.196,2.757c1.127,0.835,2.33,1.573,3.612,2.214l3.927-3.967
				c0.111-0.113,0.244-0.207,0.396-0.292c0.154-0.085,0.299-0.139,0.439-0.167c0.166-0.028,0.327-0.043,0.48-0.043
				c0.154,0,0.313,0.029,0.482,0.084c0.5,0.168,1.009,0.313,1.523,0.439c0.514,0.126,1.037,0.229,1.566,0.313
				c0.53,0.085,1.065,0.145,1.61,0.188C29.691,22.62,30.239,22.641,30.796,22.641z M29.042,16.415c0-1.727-0.328-3.348-0.981-4.867
				c-0.656-1.518-1.553-2.833-2.695-3.947c-1.113-1.142-2.432-2.04-3.947-2.695c-1.518-0.654-3.141-0.982-4.867-0.982V0.374
				c2.228,0,4.308,0.417,6.244,1.252c1.937,0.835,3.642,1.978,5.119,3.426c1.447,1.477,2.591,3.182,3.424,5.116
				c0.837,1.937,1.255,4.018,1.255,6.246h-3.551V16.415z M21.898,16.415c0-0.724-0.141-1.413-0.418-2.067
				c-0.279-0.653-0.668-1.218-1.169-1.692c-0.473-0.501-1.037-0.89-1.691-1.169c-0.656-0.278-1.346-0.418-2.068-0.418v-3.55
				c1.225,0,2.38,0.229,3.468,0.689c1.084,0.46,2.031,1.094,2.839,1.9c0.809,0.809,1.441,1.754,1.901,2.841
				c0.46,1.086,0.688,2.242,0.688,3.467L21.898,16.415L21.898,16.415z"/>
		</g>
	</g>
</g>
</svg>
